<svg width="258" height="34" viewBox="0 0 258 34" fill="none" xmlns="http://www.w3.org/2000/svg">
<path d="M8.86328 1.37891V26.6719H13.8633V33H0.640625V1.37891H8.86328ZM30.0742 1.37891L34.7812 33H26.3633L25.9531 27.3164H23.0039L22.5156 33H14L18.1797 1.37891H30.0742ZM25.7188 21.7109C25.3021 18.1302 24.8854 13.7096 24.4688 8.44922C23.6354 14.4909 23.1146 18.9115 22.9062 21.7109H25.7188ZM67.125 1.37891L63.4727 33H53.1992C52.2617 28.1432 51.4349 22.6224 50.7188 16.4375C50.3932 19.0807 49.6315 24.6016 48.4336 33H38.2188L34.5469 1.37891H42.5352L43.375 12.4141L44.2344 23.0586C44.5339 17.5508 45.2891 10.3242 46.5 1.37891H55.0547C55.1719 2.30339 55.4714 5.77995 55.9531 11.8086L56.8516 23.8203C57.3073 16.1771 58.069 8.69661 59.1367 1.37891H67.125ZM82.9648 1.37891L87.6719 33H79.2539L78.8438 27.3164H75.8945L75.4062 33H66.8906L71.0703 1.37891H82.9648ZM78.6094 21.7109C78.1927 18.1302 77.776 13.7096 77.3594 8.44922C76.526 14.4909 76.0052 18.9115 75.7969 21.7109H78.6094ZM107.438 1.37891V33H100.23L95.9531 18.625V33H89.0781V1.37891H95.9531L100.562 15.6172V1.37891H107.438ZM137.027 15.168H128.805V9.66016C128.805 8.05859 128.714 7.0625 128.531 6.67188C128.362 6.26823 127.978 6.06641 127.379 6.06641C126.702 6.06641 126.272 6.30729 126.09 6.78906C125.908 7.27083 125.816 8.3125 125.816 9.91406V24.6016C125.816 26.138 125.908 27.1406 126.09 27.6094C126.272 28.0781 126.682 28.3125 127.32 28.3125C127.932 28.3125 128.329 28.0781 128.512 27.6094C128.707 27.1406 128.805 26.0404 128.805 24.3086V20.3438H137.027V21.5742C137.027 24.8424 136.793 27.1602 136.324 28.5273C135.868 29.8945 134.846 31.0924 133.258 32.1211C131.682 33.1497 129.736 33.6641 127.418 33.6641C125.009 33.6641 123.023 33.2279 121.461 32.3555C119.898 31.4831 118.863 30.2786 118.355 28.7422C117.848 27.1927 117.594 24.8685 117.594 21.7695V12.5312C117.594 10.2526 117.672 8.54688 117.828 7.41406C117.984 6.26823 118.447 5.16797 119.215 4.11328C119.996 3.05859 121.07 2.23177 122.438 1.63281C123.818 1.02083 125.4 0.714844 127.184 0.714844C129.605 0.714844 131.604 1.18359 133.18 2.12109C134.755 3.05859 135.79 4.23047 136.285 5.63672C136.78 7.02995 137.027 9.20443 137.027 12.1602V15.168ZM158.766 19.8945C158.766 23.0716 158.688 25.3242 158.531 26.6523C158.388 27.9674 157.919 29.1719 157.125 30.2656C156.344 31.3594 155.283 32.1992 153.941 32.7852C152.6 33.3711 151.038 33.6641 149.254 33.6641C147.561 33.6641 146.038 33.3906 144.684 32.8438C143.342 32.2839 142.262 31.4505 141.441 30.3438C140.621 29.237 140.133 28.0326 139.977 26.7305C139.82 25.4284 139.742 23.1497 139.742 19.8945V14.4844C139.742 11.3073 139.814 9.0612 139.957 7.74609C140.113 6.41797 140.582 5.20703 141.363 4.11328C142.158 3.01953 143.225 2.17969 144.566 1.59375C145.908 1.00781 147.47 0.714844 149.254 0.714844C150.947 0.714844 152.464 0.994792 153.805 1.55469C155.159 2.10156 156.246 2.92839 157.066 4.03516C157.887 5.14193 158.375 6.34635 158.531 7.64844C158.688 8.95052 158.766 11.2292 158.766 14.4844V19.8945ZM150.543 9.50391C150.543 8.03255 150.458 7.09505 150.289 6.69141C150.133 6.27474 149.801 6.06641 149.293 6.06641C148.863 6.06641 148.531 6.23568 148.297 6.57422C148.076 6.89974 147.965 7.8763 147.965 9.50391V24.2695C147.965 26.1055 148.036 27.2383 148.18 27.668C148.336 28.0977 148.688 28.3125 149.234 28.3125C149.794 28.3125 150.152 28.0651 150.309 27.5703C150.465 27.0755 150.543 25.8971 150.543 24.0352V9.50391ZM181.383 1.37891L177.203 33H164.723L159.977 1.37891H168.648C169.651 10.0898 170.367 17.4531 170.797 23.4688C171.227 17.388 171.676 11.9844 172.145 7.25781L172.711 1.37891H181.383ZM191.012 1.37891V33H182.789V1.37891H191.012ZM194.312 1.37891H200.465C204.436 1.37891 207.118 1.5612 208.512 1.92578C209.918 2.29036 210.986 2.88932 211.715 3.72266C212.444 4.55599 212.9 5.48698 213.082 6.51562C213.264 7.53125 213.355 9.53646 213.355 12.5312V23.6055C213.355 26.444 213.219 28.3451 212.945 29.3086C212.685 30.2591 212.223 31.0078 211.559 31.5547C210.895 32.0885 210.074 32.4661 209.098 32.6875C208.121 32.8958 206.65 33 204.684 33H194.312V1.37891ZM202.535 6.78906V27.5898C203.72 27.5898 204.449 27.3555 204.723 26.8867C204.996 26.4049 205.133 25.1094 205.133 23V10.7148C205.133 9.28255 205.087 8.36458 204.996 7.96094C204.905 7.55729 204.697 7.26432 204.371 7.08203C204.046 6.88672 203.434 6.78906 202.535 6.78906ZM235.426 1.37891V33H227.535V16.0469C227.535 13.599 227.477 12.1276 227.359 11.6328C227.242 11.138 226.917 10.7669 226.383 10.5195C225.862 10.2591 224.69 10.1289 222.867 10.1289H222.086V6.4375C225.901 5.61719 228.798 3.93099 230.777 1.37891H235.426ZM238.492 24.6016H246.383C246.383 26.0729 246.402 27.0039 246.441 27.3945C246.48 27.7721 246.637 28.0911 246.91 28.3516C247.197 28.612 247.581 28.7422 248.062 28.7422C248.466 28.7422 248.798 28.6185 249.059 28.3711C249.319 28.1237 249.462 27.8047 249.488 27.4141C249.527 27.0234 249.547 26.2357 249.547 25.0508V20.0117C249.156 20.8581 248.57 21.4961 247.789 21.9258C247.008 22.3424 246.038 22.5508 244.879 22.5508C243.434 22.5508 242.158 22.1602 241.051 21.3789C239.944 20.5977 239.241 19.6602 238.941 18.5664C238.642 17.4727 238.492 15.9948 238.492 14.1328V11.6133C238.492 9.39974 238.577 7.7526 238.746 6.67188C238.928 5.59115 239.384 4.59505 240.113 3.68359C240.842 2.75911 241.852 2.04297 243.141 1.53516C244.43 1.02734 245.927 0.773438 247.633 0.773438C249.742 0.773438 251.474 1.06641 252.828 1.65234C254.182 2.23828 255.23 3.08464 255.973 4.19141C256.715 5.28516 257.145 6.4375 257.262 7.64844C257.379 8.85938 257.438 11.2031 257.438 14.6797V19.0742C257.438 22.8372 257.385 25.3568 257.281 26.6328C257.177 27.8958 256.721 29.0938 255.914 30.2266C255.12 31.3594 254.039 32.2122 252.672 32.7852C251.305 33.3451 249.723 33.625 247.926 33.625C245.699 33.625 243.876 33.2669 242.457 32.5508C241.051 31.8346 240.035 30.8255 239.41 29.5234C238.798 28.2214 238.492 26.5807 238.492 24.6016ZM246.383 14.7383C246.383 16.0664 246.552 16.8867 246.891 17.1992C247.242 17.5117 247.6 17.668 247.965 17.668C248.512 17.668 248.909 17.4727 249.156 17.082C249.417 16.6784 249.547 15.8971 249.547 14.7383V9.01562C249.547 7.6224 249.423 6.71094 249.176 6.28125C248.941 5.85156 248.544 5.63672 247.984 5.63672C247.646 5.63672 247.294 5.80599 246.93 6.14453C246.565 6.47005 246.383 7.36198 246.383 8.82031V14.7383Z" fill="#F69168"/>
</svg>
