<svg width="27" height="27" viewBox="0 0 27 27" fill="none" xmlns="http://www.w3.org/2000/svg">
<path d="M24.6617 10.5799C23.9554 10.5799 23.5907 9.71969 24.0961 9.21432C25.8357 7.4747 25.8357 4.64413 24.0961 2.90451C22.3565 1.16489 19.5259 1.16489 17.7863 2.90451C17.4739 3.21693 16.9674 3.21693 16.655 2.90451C16.3426 2.59209 16.3426 2.0856 16.655 1.77319C19.0184 -0.590249 22.864 -0.590249 25.2274 1.77319C27.5909 4.13663 27.5909 7.9822 25.2274 10.3456C25.0712 10.5018 24.8665 10.5799 24.6617 10.5799Z" fill="#FFF6F2"/>
<path d="M1.77258 25.228C-0.59086 22.8646 -0.59086 19.019 1.77258 16.6556C2.08494 16.3432 2.59148 16.3432 2.9039 16.6556C3.21632 16.968 3.21632 17.4745 2.9039 17.7869C1.16428 19.5265 1.16428 22.3571 2.9039 24.0967C4.64352 25.8363 7.47409 25.8363 9.21371 24.0967C9.52607 23.7843 10.0326 23.7843 10.345 24.0967C10.6574 24.4091 10.6574 24.9156 10.345 25.228C7.9817 27.5914 4.13607 27.5916 1.77258 25.228V25.228Z" fill="#FFF6F2"/>
<path d="M26.6644 11.6889C19.55 20.0955 19.8401 19.7563 19.798 19.7985C19.5654 20.031 11.6937 26.6601 11.6884 26.6649C11.37 26.9347 10.8985 26.9129 10.6058 26.6201C1.19739 17.2117 11.4377 27.452 0.380514 16.3948C0.0861238 16.1005 0.0669245 15.6295 0.335715 15.3122C8.29379 5.90652 6.92477 7.45761 7.73119 6.75145C8.22717 6.33056 14.8244 0.748456 15.3117 0.336203C15.6291 0.0674128 16.1 0.0866121 16.3944 0.381002C16.6777 0.664299 26.2473 10.2339 26.6196 10.6062C26.914 10.9006 26.9332 11.3716 26.6644 11.6889Z" fill="#F69168"/>
<path d="M26.6645 11.6889C19.55 20.0955 19.8402 19.7563 19.798 19.7985C8.95415 8.95457 7.38034 7.41009 7.22461 7.19463C7.34797 7.06456 12.6736 2.56765 15.3118 0.336203C15.6291 0.0674128 16.1 0.0866121 16.3944 0.381002C16.7265 0.71299 26.0854 10.072 26.6197 10.6062C26.9141 10.9006 26.9333 11.3716 26.6645 11.6889Z" fill="#FD804D"/>
<path d="M15.8591 6.24871C11.3637 12.0336 12.0148 11.3784 6.24811 15.8597C5.90007 16.1304 5.39731 16.069 5.12543 15.7191C4.85429 15.3703 4.91728 14.8676 5.26606 14.5964C11.0168 10.1286 10.3481 10.7341 14.5958 5.26671C14.8669 4.91787 15.3696 4.85489 15.7184 5.12608C16.0673 5.39716 16.1303 5.89986 15.8591 6.24871V6.24871Z" fill="#E6FFFF"/>
<path d="M11.5276 11.5279L10.3962 10.3966C11.6033 9.18946 12.0015 8.60638 14.5961 5.26671C14.8672 4.91787 15.3699 4.85489 15.7188 5.12608C16.0676 5.39722 16.1306 5.89992 15.8594 6.24876C13.3097 9.52977 12.8259 10.2295 11.5276 11.5279Z" fill="#D9F2FF"/>
<path d="M21.273 11.6578C16.8696 17.3702 17.4274 16.8255 11.6575 21.2734C11.306 21.5447 10.8042 21.4766 10.5356 21.1282C10.2656 20.7783 10.3304 20.2759 10.6807 20.0063C16.3896 15.6056 15.807 16.1282 20.0059 10.6811C20.2756 10.3308 20.7778 10.2659 21.1279 10.5359C21.4778 10.8052 21.543 11.3079 21.273 11.6578V11.6578Z" fill="#E6FFFF"/>
<path d="M21.128 10.5359C21.4779 10.8052 21.5432 11.3079 21.2731 11.6578C18.8097 14.8536 18.2867 15.6134 16.9499 16.9502L15.8186 15.8189C17.0265 14.611 17.4024 14.0587 20.006 10.6811C20.2757 10.3308 20.778 10.2659 21.128 10.5359V10.5359Z" fill="#D9F2FF"/>
<path d="M18.5662 8.95317C14.0946 14.7304 14.7016 14.1169 8.95287 18.5665C8.60387 18.8361 8.1017 18.7741 7.83024 18.4236C7.56023 18.0743 7.62396 17.5716 7.97355 17.3013C13.7226 12.8513 13.0881 13.4165 17.301 7.97379C17.5714 7.6242 18.0741 7.56047 18.4233 7.83049C18.7725 8.10131 18.8366 8.60364 18.5662 8.95317V8.95317Z" fill="#E6FFFF"/>
<path d="M14.2385 14.2389L13.1072 13.1076C14.3344 11.8804 14.7479 11.2724 17.301 7.97403C17.5714 7.62445 18.0741 7.56072 18.4233 7.83073C18.7725 8.1015 18.8366 8.60383 18.5662 8.95336C16.0509 12.203 15.5562 12.9212 14.2385 14.2389V14.2389Z" fill="#D9F2FF"/>
</svg>
