<svg width="17" height="29" viewBox="0 0 17 29" fill="none" xmlns="http://www.w3.org/2000/svg">
<path d="M16.0273 11.9845H0.943604V7.92259C0.943604 3.75813 4.31953 0.382202 8.48399 0.382202H8.48693C12.6514 0.382202 16.0273 3.75813 16.0273 7.92259V11.9845Z" fill="#B0826D"/>
<path d="M8.48686 0.382202H8.48392C8.00991 0.382202 7.54623 0.426426 7.09644 0.510095C10.5981 1.16145 13.2494 4.2322 13.2494 7.92264V11.9846H16.0273V7.92264C16.0273 3.75813 12.6513 0.382202 8.48686 0.382202V0.382202Z" fill="#A37560"/>
<path d="M15.3396 13.0271H1.63104C0.94491 13.0271 0.388672 12.4709 0.388672 11.7848V11.7516C0.388672 11.0655 0.94491 10.5093 1.63104 10.5093H15.3396C16.0257 10.5093 16.5819 11.0655 16.5819 11.7516V11.7848C16.5819 12.4709 16.0257 13.0271 15.3396 13.0271Z" fill="#FFD7C2"/>
<path d="M0.893799 27.9942V25.0276C0.893799 21.9824 3.36248 19.5137 6.40774 19.5137H10.5632C13.6085 19.5137 16.0772 21.9824 16.0772 25.0276V27.9942H0.893799Z" fill="#FA895A"/>
<path d="M10.5633 19.5137H7.7854C10.8307 19.5137 13.2993 21.9824 13.2993 25.0276V27.9942H16.0772V25.0276C16.0772 21.9823 13.6085 19.5137 10.5633 19.5137Z" fill="#FA895A"/>
<path d="M8.48903 22.6712H8.48198C7.39732 22.6712 6.51807 21.7919 6.51807 20.7073V19.5248C6.51807 18.4402 7.39732 17.5609 8.48198 17.5609H8.48903C9.57369 17.5609 10.4529 18.4402 10.4529 19.5248V20.7073C10.4529 21.7919 9.57369 22.6712 8.48903 22.6712Z" fill="#FFD7C2"/>
<path d="M8.49507 19.595H8.47602C5.19509 19.595 2.5354 16.9363 2.5354 13.6567V10.1532C2.5354 8.44431 2.6084 6.31308 4.4134 5.82057C6.12517 5.3535 6.90469 7.01244 8.47602 7.01244H8.49507C10.0742 7.01244 10.9204 5.27794 12.6854 5.8354C14.2877 6.34147 14.4356 8.45203 14.4356 10.1531V13.6567C14.4357 16.9363 11.776 19.595 8.49507 19.595V19.595Z" fill="#FFD7C2"/>
<path d="M8.43108 13.5565C7.01448 13.5661 6.68264 14.71 4.52002 14.71V17.5544C4.52002 17.9077 4.68502 18.2429 4.9702 18.4517C5.95284 19.1711 7.16476 19.596 8.47608 19.596H8.49513C9.80645 19.596 11.0184 19.1711 12.001 18.4517C12.2862 18.2429 12.4512 17.9076 12.4512 17.5544V14.71C10.1065 14.71 9.88401 13.5466 8.43108 13.5565V13.5565Z" fill="white"/>
<path d="M8.43058 13.5555C7.98745 13.5585 7.65044 13.6725 7.33032 13.8278C7.81867 14.07 8.26896 14.4126 9.06098 14.5908C9.74367 14.7445 10.2284 15.3518 10.2284 16.0516V17.5534C10.2284 17.9111 10.0573 18.2473 9.76823 18.458C9.06998 18.9669 8.25613 19.3264 7.37388 19.4919C7.73094 19.5589 8.09896 19.595 8.47547 19.595H8.49452C9.80589 19.595 11.0178 19.1701 12.0005 18.4506C12.2856 18.2419 12.4506 17.9067 12.4506 17.5534V14.7091C10.106 14.7091 9.88351 13.5456 8.43058 13.5555V13.5555Z" fill="#F2F2F2"/>
<path d="M16.4588 10.8765C16.4589 10.0425 16.4588 9.20839 16.4588 8.37425C16.4585 6.9731 16.1182 5.61545 15.4747 4.44802C14.7454 3.12515 13.6607 2.04051 12.3379 1.31127C10.9721 0.558412 9.42171 0.227013 7.85378 0.35285C6.31201 0.476687 4.85053 1.04348 3.62738 1.99206C3.44554 2.13312 3.41243 2.39485 3.55343 2.57669C3.69449 2.75853 3.95622 2.7917 4.13806 2.65064C5.23281 1.80161 6.54074 1.29432 7.92045 1.18354C9.30488 1.07232 10.7308 1.37688 11.9356 2.04107C13.1203 2.69414 14.0917 3.66556 14.7448 4.85031C15.3289 5.90984 15.6252 7.09555 15.6254 8.37442V10.4767C15.5372 10.4621 14.8669 10.4542 14.8669 10.4542C14.8653 9.60845 14.8265 8.63881 14.5758 7.78968C14.2651 6.73781 13.6763 6.06829 12.8256 5.79962C11.6474 5.42744 10.8098 5.92635 10.0709 6.36658C8.90226 7.06277 8.09912 7.07071 6.93425 6.36969C6.23573 5.9494 5.4441 5.473 4.31845 5.78012C2.16161 6.36858 2.13383 8.90032 2.1335 10.4543C2.1335 10.4543 1.45926 10.4626 1.36915 10.4778C1.33948 8.42992 1.22798 6.12568 2.52796 4.39558C2.66618 4.21157 2.62913 3.9504 2.44512 3.81217C2.26117 3.67389 1.99994 3.711 1.86172 3.89501C0.463231 5.75617 0.498343 8.0393 0.532344 10.2473C0.535566 10.4587 0.538511 10.6688 0.5404 10.8778C-0.566799 11.8696 0.138999 13.8055 1.64604 13.8055H2.1335C2.09617 16.1605 3.3062 18.3861 5.36482 19.5531C2.59757 20.0534 0.491954 22.4799 0.491954 25.3892V28.3557C0.491954 28.5858 0.678515 28.7724 0.908633 28.7724C1.13875 28.7724 1.32531 28.5858 1.32531 28.3557V25.3892C1.32531 22.6814 3.44771 20.4604 6.11623 20.3014V21.0688C6.11623 22.3814 7.18415 23.4494 8.4968 23.4494H8.50385C9.8165 23.4494 10.8844 22.3814 10.8844 21.0688V20.3018C11.7959 20.3559 12.6696 20.65 13.4277 21.1622C13.8585 21.4531 14.3505 20.7799 13.8942 20.4716C13.2083 20.0082 12.4412 19.6981 11.6357 19.5532C13.6893 18.389 14.9133 16.1578 14.8671 13.8055H15.3546C16.8599 13.8054 17.5678 11.8679 16.4588 10.8765ZM4.53779 6.58409C5.31959 6.3708 5.86878 6.70115 6.50452 7.08377C7.94095 7.94818 9.05776 7.94018 10.4974 7.08255C11.1709 6.68126 11.7527 6.33469 12.5746 6.59431C13.2961 6.8222 14.0337 7.46617 14.0337 10.5147V12.3198C14.0197 13.3499 13.5587 14.4427 12.4338 14.6537C11.256 14.6479 10.6906 14.332 10.144 14.0261C8.95864 13.3628 7.92395 13.3847 6.73819 14.0396C6.19634 14.3388 5.63549 14.6477 4.56402 14.6534C3.49132 14.4565 2.98669 13.406 2.9668 12.4099V10.5148C2.96686 8.74276 3.08814 6.9796 4.53779 6.58409V6.58409ZM1.64604 12.9721C0.585512 12.9721 0.570345 11.2876 1.64604 11.2876H2.1335C2.1335 11.8492 2.13306 12.4105 2.1335 12.9721H1.64604ZM3.01258 14.7267C3.3212 15.0336 3.7041 15.2639 4.118 15.3971V17.393C3.5201 16.62 3.13798 15.7017 3.01258 14.7267ZM8.5038 22.6159H8.49674C7.64361 22.6159 6.94953 21.9219 6.94953 21.0687V20.1853C7.44855 20.3093 7.96489 20.3733 8.49074 20.3733H8.5098C9.0357 20.3733 9.552 20.3093 10.051 20.1853V21.0688C10.051 21.9218 9.35694 22.6159 8.5038 22.6159ZM11.7696 18.476C10.8189 19.172 9.69167 19.5399 8.5098 19.5399H8.49074C7.30887 19.5399 6.18168 19.172 5.23098 18.476C5.05586 18.3478 4.95136 18.138 4.95136 17.9149V15.473C6.00006 15.3991 6.62652 15.0532 7.14115 14.769C8.06434 14.2591 8.81225 14.2358 9.73706 14.7533C10.2612 15.0466 10.9004 15.4042 12.0492 15.4748V17.9148C12.0492 18.1381 11.9447 18.3478 11.7696 18.476V18.476ZM12.8825 17.3933V15.397C13.2967 15.2635 13.6797 15.0327 13.9882 14.7252C13.863 15.7013 13.4809 16.6201 12.8825 17.3933ZM16.1802 12.1464C16.1802 12.6017 15.8098 12.9721 15.3546 12.9721H14.8671V11.2876H15.3546C15.8346 11.2876 16.1636 11.6953 16.1802 12.1464Z" fill="black"/>
<path d="M15.0376 22.1187C14.8424 22.2406 14.783 22.4977 14.9049 22.6929C15.4089 23.5 15.6754 24.4324 15.6754 25.3891V28.3556C15.6754 28.5857 15.862 28.7723 16.0921 28.7723C16.3222 28.7723 16.5087 28.5857 16.5087 28.3556V25.3891C16.5087 24.2761 16.1986 23.1911 15.6117 22.2515C15.4898 22.0562 15.2328 21.9968 15.0376 22.1187V22.1187Z" fill="black"/>
<path d="M3.86712 25.9407C3.637 25.9407 3.45044 26.1272 3.45044 26.3574V28.3555C3.45044 28.5857 3.637 28.7722 3.86712 28.7722C4.09724 28.7722 4.28381 28.5857 4.28381 28.3555V26.3574C4.28381 26.1272 4.09724 25.9407 3.86712 25.9407Z" fill="black"/>
<path d="M13.1335 25.9407C12.9034 25.9407 12.7168 26.1272 12.7168 26.3574V28.3555C12.7168 28.5857 12.9034 28.7722 13.1335 28.7722C13.3636 28.7722 13.5502 28.5857 13.5502 28.3555V26.3574C13.5502 26.1272 13.3636 25.9407 13.1335 25.9407Z" fill="black"/>
<path d="M10.0118 15.9746H6.98919C6.75907 15.9746 6.57251 16.1612 6.57251 16.3913C6.57251 16.6214 6.75907 16.808 6.98919 16.808H10.0118C10.2419 16.808 10.4284 16.6214 10.4284 16.3913C10.4284 16.1612 10.2419 15.9746 10.0118 15.9746Z" fill="#FD804D"/>
<path d="M9.45184 17.5973H7.54876C7.31864 17.5973 7.13208 17.7839 7.13208 18.014C7.13208 18.2441 7.31864 18.4307 7.54876 18.4307H9.45184C9.68196 18.4307 9.86852 18.2441 9.86852 18.014C9.86852 17.7839 9.68196 17.5973 9.45184 17.5973Z" fill="#FD804D"/>
<path d="M4.89471 12.3034C5.12483 12.3034 5.31139 12.1168 5.31139 11.8867C5.31139 11.5868 5.55557 11.3428 5.85564 11.3428C6.1557 11.3428 6.39988 11.5868 6.39988 11.8867C6.39988 12.1168 6.58644 12.3034 6.81656 12.3034C7.04668 12.3034 7.23324 12.1168 7.23324 11.8867C7.23324 11.1273 6.61522 10.5094 5.85564 10.5094C5.09605 10.5094 4.47803 11.1273 4.47803 11.8867C4.47803 12.1168 4.66459 12.3034 4.89471 12.3034Z" fill="black"/>
<path d="M10.184 12.3034C10.4141 12.3034 10.6007 12.1168 10.6007 11.8867C10.6007 11.5868 10.8449 11.3428 11.1449 11.3428C11.445 11.3428 11.6892 11.5868 11.6892 11.8867C11.6892 12.1168 11.8757 12.3034 12.1059 12.3034C12.336 12.3034 12.5226 12.1168 12.5226 11.8867C12.5226 11.1273 11.9045 10.5094 11.1449 10.5094C10.3854 10.5094 9.76733 11.1273 9.76733 11.8867C9.76733 12.1168 9.9539 12.3034 10.184 12.3034Z" fill="black"/>
</svg>
